<svg xmlns:xlink="http://www.w3.org/1999/xlink" viewBox="0 0 254.68 254.68" style="shape-rendering:geometricPrecision; text-rendering:geometricPrecision; image-rendering:optimizeQuality; fill-rule:evenodd; clip-rule:evenodd" version="1.1" height="614px" width="614px" xml:space="preserve" xmlns="http://www.w3.org/2000/svg">
 <defs>
  <style type="text/css">
   
    .str0 {stroke:#F8D63A;stroke-width:3.32;stroke-miterlimit:2.61313}
    .str3 {stroke:#2B2A29;stroke-width:0.86;stroke-miterlimit:2.61313}
    .str1 {stroke:#4F2A22;stroke-width:0.37;stroke-miterlimit:2.61313}
    .str2 {stroke:#FEFEFE;stroke-width:3.32;stroke-linecap:round;stroke-linejoin:round;stroke-miterlimit:2.61313}
    .fil0 {fill:none}
    .fil3 {fill:#FEFEFE}
    .fil1 {fill:#4F2A22}
    .fil2 {fill:#FEFEFE;fill-rule:nonzero}
    .fil4 {fill:black;fill-rule:nonzero}
   
  </style>
 </defs>
 <g id="Layer_x0020_1">
  <metadata id="CorelCorpID_0Corel-Layer"></metadata>
  <circle r="125.68" cy="127.34" cx="127.34" class="fil0 str0"></circle>
  <path d="M5.6 127.35c0,-33.58 13.65,-64.02 35.69,-86.06 22.04,-22.04 52.47,-35.69 86.05,-35.69 33.58,0 64.02,13.65 86.05,35.69 22.04,22.04 35.69,52.48 35.69,86.06 0,33.57 -13.65,64.01 -35.69,86.05 -22.03,22.03 -52.47,35.68 -86.05,35.68 -33.57,0 -64.01,-13.65 -86.05,-35.68 -22.04,-22.04 -35.69,-52.48 -35.69,-86.05zm37.33 0c0,-46.55 37.87,-84.42 84.41,-84.42 46.55,0 84.41,37.87 84.41,84.42 0,46.54 -37.86,84.4 -84.41,84.4 -46.54,0 -84.41,-37.86 -84.41,-84.4z" class="fil1"></path>
  <circle r="94.25" cy="127.34" cx="127.34" class="fil0"></circle>
  <path d="M45.96 60.25l2.7 -2.86 7.95 7.5c-0.07,0.15 -0.2,0.37 -0.41,0.65 -0.21,0.28 -0.43,0.55 -0.68,0.81 -0.53,0.57 -1.01,0.87 -1.43,0.92 -0.42,0.04 -0.88,-0.18 -1.39,-0.65l-6.74 -6.37zm6.32 0.55l-2.7 2.87 -7.11 -6.71c0.09,-0.15 0.24,-0.37 0.45,-0.66 0.21,-0.29 0.42,-0.56 0.65,-0.8 0.52,-0.55 0.99,-0.86 1.4,-0.92 0.41,-0.06 0.88,0.16 1.41,0.66l5.9 5.56zm0.31 -7.58l2.72 -2.88 7.95 7.51c-0.08,0.16 -0.22,0.38 -0.43,0.66 -0.2,0.28 -0.43,0.55 -0.68,0.82 -0.53,0.56 -1.01,0.86 -1.43,0.91 -0.42,0.04 -0.88,-0.18 -1.38,-0.65l-6.75 -6.37zm6.34 0.53l-2.72 2.89 -7.1 -6.71c0.1,-0.16 0.25,-0.38 0.45,-0.67 0.2,-0.29 0.42,-0.56 0.66,-0.8 0.51,-0.55 0.98,-0.85 1.4,-0.91 0.43,-0.06 0.9,0.16 1.43,0.66l5.88 5.54zm-1.42 1.02l-6.95 7.36 -2.28 -2.15 6.95 -7.36 2.28 2.15z" class="fil2"></path>
  <path d="M59.4 46.94l3.09 -2.44 6.78 8.59c-0.09,0.14 -0.26,0.33 -0.51,0.57 -0.24,0.26 -0.51,0.49 -0.79,0.72 -0.61,0.48 -1.13,0.71 -1.55,0.69 -0.42,-0.02 -0.85,-0.3 -1.27,-0.84l-5.75 -7.29zm6.18 1.47l-3.1 2.44 -6.04 -7.67c0.11,-0.14 0.29,-0.33 0.53,-0.59 0.25,-0.26 0.51,-0.5 0.78,-0.71 0.58,-0.46 1.08,-0.69 1.5,-0.69 0.42,0 0.85,0.28 1.3,0.85l5.03 6.37z" class="fil2" id="_1"></path>
  <path d="M79.7 36.87l2.87 4.56c0.27,0.41 0.38,0.76 0.36,1.08 -0.02,0.3 -0.14,0.66 -0.37,1.07 -0.26,0.47 -0.7,1.02 -1.34,1.66 -0.64,0.64 -1.34,1.2 -2.08,1.67 -1.4,0.88 -2.82,1.43 -4.24,1.65 -1.43,0.22 -2.79,0.01 -4.09,-0.61 -1.3,-0.62 -2.47,-1.74 -3.49,-3.36 -0.98,-1.55 -1.46,-3.05 -1.47,-4.51 0,-1.46 0.39,-2.81 1.17,-4.05 0.78,-1.24 1.85,-2.28 3.21,-3.14 0.9,-0.57 1.75,-0.97 2.54,-1.2 0.78,-0.23 1.45,-0.29 2.02,-0.18 0.58,0.11 1,0.38 1.27,0.82 0.21,0.32 0.31,0.67 0.3,1.02 -0.01,0.37 -0.09,0.69 -0.23,0.97 -0.52,-0.01 -1.11,0.06 -1.8,0.21 -0.69,0.15 -1.4,0.45 -2.14,0.93 -0.81,0.5 -1.42,1.13 -1.84,1.87 -0.42,0.75 -0.59,1.55 -0.53,2.42 0.06,0.88 0.37,1.76 0.93,2.65 0.6,0.96 1.28,1.66 2.03,2.09 0.75,0.42 1.53,0.6 2.33,0.53 0.81,-0.07 1.6,-0.35 2.37,-0.84 0.37,-0.23 0.68,-0.47 0.93,-0.73 0.25,-0.27 0.43,-0.48 0.55,-0.66l-1.62 -2.56 -2.56 1.61c-0.18,-0.09 -0.38,-0.22 -0.59,-0.4 -0.22,-0.18 -0.41,-0.4 -0.58,-0.67 -0.28,-0.45 -0.39,-0.85 -0.31,-1.19 0.08,-0.35 0.29,-0.63 0.64,-0.85l3.69 -2.33c0.39,-0.24 0.77,-0.33 1.13,-0.26 0.37,0.08 0.68,0.32 0.94,0.73z" class="fil2" id="_2"></path>
  <path d="M82.89 31.79l3.68 -1.41 3.92 10.2c-0.12,0.11 -0.34,0.24 -0.65,0.41 -0.3,0.16 -0.63,0.31 -0.97,0.44 -0.72,0.28 -1.28,0.35 -1.68,0.2 -0.4,-0.14 -0.72,-0.54 -0.97,-1.18l-3.33 -8.66zm5.47 3.23l-3.68 1.41 -3.51 -9.11c0.15,-0.1 0.38,-0.23 0.69,-0.41 0.32,-0.17 0.63,-0.32 0.93,-0.44 0.71,-0.27 1.27,-0.35 1.66,-0.22 0.41,0.12 0.73,0.52 1,1.2l2.91 7.57zm3.56 -6.7l3.69 -1.42 3.93 10.21c-0.14,0.11 -0.37,0.24 -0.68,0.41 -0.3,0.17 -0.63,0.31 -0.97,0.44 -0.72,0.28 -1.28,0.35 -1.68,0.2 -0.4,-0.14 -0.72,-0.53 -0.97,-1.17l-3.32 -8.67zm5.48 3.23l-3.7 1.42 -3.5 -9.12c0.16,-0.1 0.39,-0.24 0.7,-0.41 0.3,-0.17 0.61,-0.32 0.94,-0.44 0.69,-0.27 1.24,-0.34 1.65,-0.21 0.42,0.13 0.75,0.53 1.01,1.21l2.9 7.55zm-1.72 0.3l-9.45 3.63 -1.13 -2.93 9.46 -3.63 1.12 2.93z" class="fil2" id="_3"></path>
  <path d="M114.85 33.78l3.94 -1.3c0.68,0.26 1.33,0.47 1.96,0.64 0.63,0.17 1.24,0.31 1.83,0.43 0.59,0.11 1.15,0.22 1.69,0.33 0.03,0.1 0.05,0.19 0.06,0.27 0.01,0.07 0.02,0.14 0.03,0.21 0.11,0.83 -0.03,1.46 -0.4,1.9 -0.38,0.44 -0.93,0.7 -1.65,0.8 -0.72,0.1 -1.53,-0.03 -2.45,-0.36 -0.92,-0.33 -1.89,-0.84 -2.92,-1.52l-2.09 -1.4zm7.4 -8.81c0.23,1.78 0.08,3.33 -0.45,4.66 -0.54,1.32 -1.37,2.37 -2.49,3.15 -1.13,0.77 -2.45,1.25 -3.98,1.46 -1.52,0.2 -2.93,0.06 -4.21,-0.41 -1.28,-0.46 -2.34,-1.27 -3.18,-2.41 -0.85,-1.13 -1.39,-2.59 -1.62,-4.37 -0.23,-1.78 -0.08,-3.32 0.46,-4.63 0.55,-1.31 1.38,-2.36 2.5,-3.13 1.11,-0.79 2.41,-1.28 3.9,-1.47 1.51,-0.2 2.91,-0.06 4.2,0.4 1.29,0.47 2.37,1.27 3.23,2.39 0.86,1.13 1.4,2.58 1.64,4.36zm-4.04 0.53c-0.21,-1.65 -0.73,-2.84 -1.55,-3.6 -0.82,-0.75 -1.84,-1.05 -3.06,-0.9 -1.16,0.16 -2.05,0.7 -2.66,1.63 -0.61,0.94 -0.81,2.23 -0.59,3.89 0.22,1.68 0.74,2.9 1.56,3.66 0.82,0.75 1.83,1.05 3.03,0.89 1.2,-0.16 2.1,-0.7 2.7,-1.64 0.6,-0.94 0.79,-2.25 0.57,-3.93z" class="fil2" id="_4"></path>
  <path d="M132.89 33.76c-1.42,-0.12 -2.6,-0.47 -3.57,-1.06 -0.96,-0.59 -1.68,-1.36 -2.14,-2.32 -0.47,-0.96 -0.66,-2.05 -0.55,-3.27l0.14 -1.71 3.95 0.33 -0.13 1.6c-0.08,0.95 0.12,1.71 0.6,2.28 0.48,0.57 1.14,0.88 1.96,0.95 0.83,0.07 1.53,-0.14 2.09,-0.62 0.57,-0.48 0.89,-1.19 0.97,-2.14l0.14 -1.6 3.95 0.33 -0.14 1.7c-0.11,1.22 -0.46,2.27 -1.07,3.14 -0.61,0.87 -1.44,1.51 -2.5,1.93 -1.06,0.43 -2.29,0.58 -3.7,0.46zm-2.23 -7.25l-3.96 -0.33 0.76 -9.12c0.19,-0.01 0.46,-0.03 0.81,-0.06 0.35,-0.02 0.7,-0.02 1.04,0.01 0.74,0.06 1.27,0.24 1.58,0.52 0.32,0.29 0.44,0.79 0.38,1.51l-0.61 7.47zm9.57 0.85l-3.95 -0.34 0.76 -9.16c0.19,-0.02 0.47,-0.04 0.82,-0.06 0.36,-0.02 0.7,-0.02 1.03,0.01 0.74,0.06 1.27,0.23 1.58,0.52 0.32,0.28 0.44,0.79 0.38,1.51l-0.62 7.52z" class="fil2" id="_5"></path>
  <path d="M152.04 23.55l-0.15 -0.03c-0.3,0.5 -0.63,1.05 -1.01,1.65 -0.38,0.61 -0.77,1.24 -1.17,1.9 -0.4,0.66 -0.79,1.32 -1.18,1.98l-0.97 2.16c-0.18,0.3 -0.35,0.62 -0.52,0.95 -0.18,0.33 -0.35,0.65 -0.54,0.97 -0.17,0.31 -0.34,0.61 -0.49,0.89 -0.16,0.28 -0.31,0.55 -0.46,0.8 -0.19,0.01 -0.42,0.01 -0.66,0.02 -0.25,0 -0.54,-0.03 -0.86,-0.1 -0.71,-0.17 -1.21,-0.42 -1.53,-0.76 -0.31,-0.33 -0.41,-0.75 -0.3,-1.24 0.05,-0.19 0.13,-0.4 0.24,-0.61 0.11,-0.2 0.24,-0.44 0.39,-0.7 0.28,-0.52 0.65,-1.17 1.12,-1.95 0.48,-0.78 0.99,-1.62 1.55,-2.53 0.55,-0.91 1.12,-1.8 1.68,-2.68 0.57,-0.88 1.09,-1.69 1.57,-2.43 0.48,-0.74 0.87,-1.32 1.16,-1.73 0.27,-0.1 0.68,-0.15 1.22,-0.16 0.54,0 1.06,0.05 1.57,0.17 0.72,0.16 1.35,0.42 1.87,0.76 0.52,0.34 0.81,0.76 0.86,1.25 0.11,0.96 0.22,2.08 0.33,3.33 0.11,1.26 0.21,2.57 0.3,3.94 0.09,1.37 0.18,2.7 0.27,3.99 0.08,1.28 0.14,2.44 0.19,3.46 -0.23,0.16 -0.54,0.27 -0.92,0.33 -0.39,0.06 -0.83,0.03 -1.32,-0.08 -0.69,-0.16 -1.15,-0.39 -1.37,-0.71 -0.23,-0.32 -0.37,-0.75 -0.4,-1.29l-0.15 -3.02 0.06 -2.24c-0.02,-0.8 -0.07,-1.59 -0.12,-2.34 -0.06,-0.76 -0.11,-1.48 -0.15,-2.15 -0.03,-0.67 -0.07,-1.27 -0.11,-1.8zm-6.28 7.73l2.18 -2.64 5.9 1.37 -0.18 3.09 -7.9 -1.82z" class="fil2" id="_6"></path>
  <path d="M162.52 28.16l3.68 1.42 -3.87 10.03 -1.8 -0.47c-0.59,-0.23 -1,-0.59 -1.22,-1.08 -0.22,-0.49 -0.21,-1.04 0.02,-1.63l3.19 -8.27zm-1.99 10.98l1.16 -3 7.59 2.93c0.05,0.21 0.07,0.45 0.05,0.73 -0.01,0.28 -0.08,0.58 -0.2,0.89 -0.2,0.51 -0.46,0.85 -0.78,1.02 -0.33,0.17 -0.69,0.18 -1.1,0.03l-6.72 -2.6zm3.89 -4.97l-3.67 -1.42 3.52 -9.11c0.17,0.03 0.43,0.09 0.78,0.16 0.36,0.08 0.68,0.18 0.99,0.3 0.71,0.27 1.17,0.59 1.38,0.95 0.21,0.36 0.19,0.88 -0.07,1.56l-2.93 7.56z" class="fil2" id="_7"></path>
  <path d="M176.19 34.08l3.42 1.96 -5.45 9.48c-0.16,-0.03 -0.4,-0.12 -0.72,-0.25 -0.32,-0.14 -0.64,-0.29 -0.96,-0.48 -0.67,-0.38 -1.08,-0.78 -1.22,-1.17 -0.14,-0.4 -0.03,-0.9 0.31,-1.5l4.62 -8.04zm0.94 6.27l-3.42 -1.96 4.88 -8.47c0.16,0.06 0.41,0.15 0.74,0.28 0.34,0.13 0.65,0.29 0.95,0.46 0.65,0.37 1.05,0.75 1.2,1.13 0.16,0.39 0.05,0.9 -0.31,1.53l-4.04 7.03z" class="fil2" id="_8"></path>
  <path d="M187.53 39.18l1.83 -2.57 6.49 4.69c-0.01,0.19 -0.06,0.42 -0.15,0.69 -0.09,0.28 -0.23,0.54 -0.41,0.8 -0.33,0.44 -0.67,0.7 -1.03,0.77 -0.36,0.07 -0.71,-0.02 -1.06,-0.28l-5.67 -4.1zm4.82 -0.42l-1.84 2.58 -6.48 -4.7c-0.01,-0.19 0.04,-0.43 0.14,-0.7 0.1,-0.27 0.24,-0.53 0.42,-0.78 0.33,-0.46 0.68,-0.72 1.03,-0.78 0.36,-0.07 0.7,0.02 1.04,0.27l5.69 4.11zm-4.58 -0.27l3.21 2.33 -7.75 10.7c-0.17,-0.06 -0.4,-0.17 -0.71,-0.34 -0.3,-0.17 -0.61,-0.36 -0.9,-0.57 -0.63,-0.46 -0.99,-0.89 -1.09,-1.3 -0.09,-0.42 0.06,-0.9 0.46,-1.46l6.78 -9.36z" class="fil2" id="_9"></path>
  <path d="M198.13 57.59l-2.56 -2.42c0.12,-0.78 0.27,-1.66 0.45,-2.63 0.18,-0.97 0.39,-1.96 0.62,-2.96 0.23,-1 0.47,-1.96 0.71,-2.88 0.23,-0.91 0.47,-1.71 0.72,-2.37 0.33,-0.08 0.7,-0.08 1.11,-0.03 0.41,0.06 0.81,0.26 1.18,0.62 0.43,0.4 0.69,0.82 0.78,1.25 0.09,0.43 0.03,1 -0.18,1.7 -0.12,0.46 -0.25,0.92 -0.38,1.41 -0.13,0.48 -0.27,0.96 -0.41,1.45 -0.15,0.5 -0.29,0.98 -0.42,1.46 -0.13,0.48 -0.26,0.94 -0.38,1.37l0.09 0.09c0.84,-0.31 1.6,-0.6 2.28,-0.87 0.69,-0.28 1.39,-0.57 2.09,-0.87 0.7,-0.3 1.46,-0.63 2.3,-0.98 0.28,0.08 0.56,0.2 0.85,0.37 0.29,0.18 0.54,0.37 0.75,0.57 0.39,0.37 0.62,0.78 0.7,1.23 0.07,0.45 -0.08,0.87 -0.46,1.27 -0.14,0.16 -0.41,0.32 -0.79,0.5 -0.39,0.19 -0.96,0.4 -1.72,0.65 -0.75,0.25 -1.72,0.54 -2.91,0.88 -1.19,0.34 -2.66,0.74 -4.42,1.19zm-1.74 -3.6l2.83 2.67 -4.43 4.69c-0.16,-0.08 -0.38,-0.22 -0.65,-0.42 -0.28,-0.2 -0.54,-0.42 -0.79,-0.65 -0.57,-0.53 -0.87,-1.01 -0.91,-1.41 -0.05,-0.41 0.16,-0.86 0.63,-1.35l3.32 -3.53z" class="fil2" id="_10"></path>
  <circle r="111.34" cy="129.05" cx="127.34" class="fil0 str1"></circle>
  <path d="M53.84 197.37l2.72 2.86 -7.92 7.55c-0.14,-0.08 -0.35,-0.23 -0.62,-0.45 -0.27,-0.22 -0.53,-0.46 -0.78,-0.72 -0.54,-0.57 -0.81,-1.06 -0.84,-1.48 -0.02,-0.42 0.22,-0.87 0.72,-1.35l6.72 -6.41zm-0.88 6.29l-2.72 -2.85 7.07 -6.74c0.15,0.1 0.36,0.26 0.64,0.48 0.28,0.22 0.54,0.45 0.78,0.7 0.52,0.54 0.79,1.02 0.83,1.44 0.04,0.41 -0.2,0.87 -0.73,1.37l-5.87 5.6zm7.22 -0.09l2.85 2.17c-0.41,0.63 -0.82,1.24 -1.24,1.83 -0.42,0.59 -0.84,1.15 -1.25,1.69 -0.41,0.54 -0.81,1.05 -1.2,1.56l-3.1 3.93c-0.14,-0.07 -0.36,-0.19 -0.65,-0.36 -0.29,-0.18 -0.57,-0.37 -0.84,-0.58 -0.6,-0.48 -0.94,-0.9 -1.02,-1.3 -0.07,-0.39 0.09,-0.85 0.51,-1.38l5.94 -7.56zm6.75 13.78l-2.85 -2.21c0.69,-1.07 1.37,-2.05 2.07,-2.96 0.69,-0.91 1.35,-1.77 1.99,-2.59l2.69 -3.42c0.16,0.08 0.39,0.2 0.68,0.36 0.29,0.17 0.57,0.36 0.86,0.58 0.58,0.46 0.92,0.89 0.99,1.3 0.08,0.4 -0.08,0.86 -0.49,1.37l-5.94 7.57zm0.77 -0.98l-3.28 4.18c-0.31,0.02 -0.66,-0.04 -1.06,-0.19 -0.4,-0.15 -0.82,-0.39 -1.25,-0.74 -0.46,-0.36 -0.84,-0.77 -1.12,-1.24 -0.28,-0.46 -0.35,-1.05 -0.2,-1.77l1.21 -6.63c0.09,-0.42 0.18,-0.83 0.27,-1.24 0.09,-0.41 0.19,-0.82 0.3,-1.24 0.1,-0.41 0.21,-0.83 0.32,-1.24l-3.51 -1.67 3.16 -4.02c0.34,-0.1 0.74,-0.08 1.18,0.07 0.44,0.16 0.87,0.39 1.27,0.71 0.45,0.35 0.82,0.76 1.1,1.23 0.29,0.46 0.36,1.05 0.22,1.75l-1.21 6.66c-0.08,0.41 -0.16,0.82 -0.25,1.24 -0.09,0.43 -0.19,0.84 -0.28,1.25 -0.1,0.4 -0.21,0.81 -0.34,1.22l3.47 1.67zm17.63 7.54l-2.46 4.8c-0.22,0.43 -0.46,0.71 -0.74,0.86 -0.28,0.14 -0.65,0.21 -1.12,0.22 -0.53,0.02 -1.24,-0.08 -2.11,-0.31 -0.88,-0.22 -1.71,-0.54 -2.49,-0.94 -1.48,-0.75 -2.68,-1.69 -3.59,-2.81 -0.91,-1.12 -1.43,-2.39 -1.56,-3.83 -0.13,-1.43 0.24,-3.01 1.12,-4.71 0.83,-1.63 1.88,-2.82 3.13,-3.57 1.26,-0.74 2.62,-1.09 4.08,-1.05 1.47,0.04 2.91,0.42 4.34,1.16 0.96,0.49 1.73,1.01 2.33,1.57 0.6,0.56 1,1.11 1.19,1.66 0.2,0.54 0.18,1.05 -0.06,1.51 -0.17,0.34 -0.42,0.59 -0.73,0.77 -0.32,0.18 -0.63,0.28 -0.95,0.29 -0.26,-0.44 -0.62,-0.92 -1.1,-1.44 -0.47,-0.51 -1.1,-0.97 -1.89,-1.37 -0.84,-0.43 -1.69,-0.64 -2.55,-0.62 -0.85,0.02 -1.64,0.27 -2.36,0.77 -0.72,0.49 -1.32,1.21 -1.8,2.15 -0.52,1.01 -0.77,1.95 -0.76,2.81 0.02,0.87 0.26,1.63 0.73,2.28 0.47,0.66 1.11,1.2 1.93,1.62 0.38,0.19 0.75,0.33 1.1,0.42 0.36,0.08 0.64,0.13 0.85,0.14l1.38 -2.7 -2.7 -1.38c-0.01,-0.2 0.01,-0.44 0.05,-0.72 0.05,-0.28 0.14,-0.56 0.28,-0.83 0.25,-0.48 0.54,-0.77 0.87,-0.88 0.34,-0.11 0.69,-0.07 1.06,0.12l3.88 1.99c0.41,0.21 0.68,0.49 0.8,0.84 0.12,0.36 0.07,0.75 -0.15,1.18zm8.49 2.52l1.6 0.54c0.81,0.28 1.54,0.32 2.16,0.12 0.62,-0.2 1.06,-0.66 1.3,-1.38 0.24,-0.7 0.18,-1.32 -0.17,-1.85 -0.35,-0.53 -1.01,-0.96 -2,-1.29 -0.27,-0.1 -0.53,-0.17 -0.77,-0.24 -0.23,-0.06 -0.46,-0.1 -0.69,-0.12l-1.43 4.22zm0.96 3.56l-5.65 -1.91 2.9 -8.57c0.11,-0.32 0.28,-0.53 0.52,-0.65 0.24,-0.12 0.53,-0.18 0.85,-0.18 0.61,-0.01 1.29,0.07 2.05,0.23 0.75,0.16 1.52,0.38 2.31,0.65 2.21,0.74 3.72,1.77 4.52,3.07 0.8,1.3 0.93,2.75 0.39,4.33 -0.33,0.99 -0.89,1.78 -1.69,2.37 -0.8,0.6 -1.73,0.96 -2.8,1.08 -1.07,0.12 -2.21,-0.02 -3.4,-0.42zm-0.39 -1.12l3.61 0.34c0.2,0.66 0.41,1.3 0.64,1.95 0.23,0.64 0.45,1.26 0.66,1.86 0.2,0.6 0.39,1.15 0.54,1.65 0.16,0.5 0.29,0.92 0.37,1.26 -0.31,0.44 -0.7,0.73 -1.17,0.88 -0.47,0.14 -0.94,0.13 -1.41,-0.03 -0.61,-0.21 -1.03,-0.5 -1.25,-0.88 -0.23,-0.37 -0.41,-0.83 -0.54,-1.37l-1.45 -5.66zm-4.79 -2.19l3.74 1.26 -2.16 6.38c-0.17,0 -0.42,-0.03 -0.76,-0.1 -0.34,-0.07 -0.68,-0.17 -1.03,-0.28 -0.74,-0.25 -1.21,-0.56 -1.43,-0.92 -0.21,-0.37 -0.21,-0.88 0.02,-1.53l1.62 -4.81zm17.5 0.67l3.77 0.68 -1.9 10.67c-0.16,0 -0.4,0 -0.73,0 -0.32,-0.01 -0.66,-0.04 -1.02,-0.1 -0.63,-0.12 -1.1,-0.39 -1.4,-0.83 -0.31,-0.45 -0.41,-0.98 -0.3,-1.61l1.58 -8.81zm2.67 6.86l-3.78 -0.68 1.57 -8.75c0.11,-0.65 0.39,-1.12 0.83,-1.42 0.44,-0.3 0.97,-0.39 1.6,-0.28 0.36,0.06 0.69,0.15 1,0.26 0.3,0.1 0.53,0.19 0.68,0.25l-1.9 10.62zm-1.41 -2.02l0.55 -3.06 7.71 1.37c0.07,0.19 0.13,0.42 0.17,0.69 0.04,0.27 0.03,0.56 -0.03,0.87 -0.09,0.54 -0.29,0.92 -0.58,1.13 -0.29,0.21 -0.64,0.28 -1.05,0.21l-6.77 -1.21zm-1.14 6.41l0.55 -3.09 8.55 1.52c0.08,0.17 0.13,0.4 0.17,0.69 0.04,0.29 0.03,0.59 -0.03,0.89 -0.1,0.55 -0.29,0.92 -0.58,1.14 -0.29,0.21 -0.64,0.28 -1.05,0.2l-7.61 -1.35zm2.23 -12.46l0.54 -3.06 8.42 1.5c0.1,0.18 0.16,0.4 0.19,0.67 0.03,0.27 0.02,0.55 -0.04,0.86 -0.09,0.54 -0.29,0.93 -0.57,1.15 -0.29,0.22 -0.64,0.29 -1.07,0.22l-7.47 -1.34zm22.51 6.28c0.05,1.65 -0.33,2.92 -1.13,3.78 -0.8,0.87 -1.88,1.32 -3.25,1.36 -0.29,0 -0.6,0 -0.93,-0.02 -0.33,-0.02 -0.63,-0.05 -0.89,-0.09l-0.24 -9.82c0.29,-0.05 0.58,-0.08 0.86,-0.12 0.29,-0.03 0.58,-0.05 0.89,-0.06 0.9,-0.02 1.7,0.14 2.39,0.5 0.69,0.35 1.24,0.9 1.65,1.63 0.41,0.73 0.63,1.68 0.65,2.84zm4.07 -0.19c-0.05,-1.84 -0.46,-3.36 -1.23,-4.55 -0.77,-1.19 -1.83,-2.07 -3.16,-2.63 -1.34,-0.57 -2.9,-0.83 -4.68,-0.78 -0.66,0.02 -1.38,0.07 -2.17,0.16 -0.8,0.09 -1.54,0.25 -2.22,0.5 -0.31,0.12 -0.56,0.28 -0.74,0.47 -0.19,0.18 -0.28,0.45 -0.27,0.8l0.32 12.38c0.02,0.83 0.48,1.4 1.39,1.71 0.68,0.22 1.43,0.36 2.27,0.42 0.83,0.05 1.53,0.08 2.1,0.06 1.73,-0.04 3.23,-0.39 4.5,-1.03 1.27,-0.65 2.25,-1.59 2.93,-2.84 0.69,-1.24 1.01,-2.8 0.96,-4.67zm4.46 -3.69l3.91 -0.5 1.38 10.85c-0.15,0.07 -0.39,0.15 -0.73,0.24 -0.34,0.09 -0.69,0.15 -1.05,0.2 -0.77,0.1 -1.33,0.03 -1.68,-0.21 -0.35,-0.23 -0.57,-0.69 -0.66,-1.38l-1.17 -9.2zm4.54 4.44l-3.91 0.49 -1.24 -9.69c0.17,-0.06 0.43,-0.13 0.77,-0.23 0.35,-0.1 0.69,-0.17 1.03,-0.21 0.74,-0.09 1.29,-0.03 1.65,0.18 0.36,0.22 0.58,0.69 0.67,1.41l1.03 8.05zm4.16 -5.82l3.69 -1.05 2.96 10.42c-0.14,0.08 -0.36,0.18 -0.65,0.32 -0.29,0.14 -0.61,0.26 -0.96,0.36 -0.62,0.17 -1.16,0.13 -1.63,-0.13 -0.47,-0.27 -0.79,-0.7 -0.97,-1.32l-2.44 -8.6zm5.4 4.98l-3.69 1.05 -2.43 -8.55c-0.18,-0.63 -0.13,-1.18 0.13,-1.64 0.27,-0.46 0.71,-0.78 1.32,-0.96 0.35,-0.1 0.69,-0.16 1.01,-0.2 0.32,-0.04 0.56,-0.06 0.72,-0.07l2.94 10.37zm-2.14 -1.19l-0.85 -3 7.53 -2.14c0.15,0.14 0.3,0.32 0.45,0.55 0.16,0.23 0.28,0.49 0.36,0.79 0.15,0.53 0.14,0.96 -0.03,1.27 -0.17,0.32 -0.45,0.54 -0.85,0.65l-6.61 1.88zm1.78 6.26l-0.86 -3.02 8.35 -2.37c0.15,0.12 0.3,0.3 0.46,0.54 0.15,0.24 0.28,0.51 0.36,0.81 0.15,0.54 0.14,0.96 -0.03,1.28 -0.17,0.32 -0.45,0.53 -0.85,0.65l-7.43 2.11zm-3.46 -12.17l-0.85 -3 8.23 -2.33c0.16,0.11 0.31,0.29 0.46,0.51 0.14,0.23 0.26,0.5 0.34,0.79 0.15,0.54 0.15,0.96 -0.01,1.29 -0.16,0.32 -0.45,0.54 -0.86,0.66l-7.31 2.08zm12.94 -2.57l3.24 -1.52c0.37,0.65 0.72,1.3 1.05,1.95 0.33,0.64 0.64,1.27 0.92,1.88 0.29,0.61 0.56,1.21 0.82,1.79l2.07 4.56c-0.13,0.1 -0.34,0.23 -0.63,0.41 -0.29,0.18 -0.59,0.34 -0.91,0.48 -0.69,0.32 -1.23,0.42 -1.61,0.31 -0.38,-0.12 -0.71,-0.48 -0.99,-1.09l-3.96 -8.77zm15.33 0.38l-3.27 1.51c-0.63,-1.1 -1.19,-2.17 -1.67,-3.2 -0.49,-1.03 -0.94,-2.02 -1.37,-2.96l-1.8 -3.97c0.15,-0.11 0.36,-0.25 0.64,-0.43 0.27,-0.18 0.58,-0.35 0.91,-0.5 0.68,-0.31 1.21,-0.4 1.6,-0.28 0.4,0.11 0.73,0.47 1,1.07l3.96 8.76zm-0.51 -1.13l2.19 4.84c-0.12,0.28 -0.34,0.56 -0.65,0.85 -0.32,0.29 -0.73,0.54 -1.23,0.77 -0.54,0.24 -1.08,0.38 -1.62,0.42 -0.54,0.04 -1.1,-0.18 -1.67,-0.64l-5.32 -4.14c-0.32,-0.27 -0.65,-0.54 -0.97,-0.81 -0.33,-0.27 -0.64,-0.55 -0.96,-0.83 -0.32,-0.29 -0.64,-0.57 -0.96,-0.86l-3.1 2.33 -2.1 -4.65c0.07,-0.35 0.27,-0.69 0.61,-1.01 0.33,-0.33 0.74,-0.6 1.21,-0.81 0.52,-0.23 1.05,-0.37 1.6,-0.41 0.54,-0.03 1.09,0.17 1.65,0.62l5.35 4.15c0.33,0.25 0.65,0.52 0.99,0.8 0.33,0.27 0.65,0.55 0.97,0.82 0.31,0.28 0.62,0.56 0.93,0.86l3.08 -2.3zm3.44 -10.32l-1.85 -2.57 6.53 -4.64c0.17,0.07 0.38,0.19 0.61,0.37 0.23,0.17 0.43,0.39 0.61,0.64 0.32,0.45 0.46,0.86 0.41,1.22 -0.05,0.36 -0.25,0.67 -0.6,0.92l-5.71 4.06zm1.15 -4.7l1.85 2.56 -6.53 4.65c-0.18,-0.06 -0.39,-0.18 -0.61,-0.36 -0.23,-0.18 -0.43,-0.4 -0.61,-0.65 -0.33,-0.47 -0.47,-0.88 -0.41,-1.23 0.05,-0.36 0.25,-0.66 0.58,-0.9l5.73 -4.07zm-1.72 4.25l3.23 -2.3 7.66 10.77c-0.11,0.15 -0.29,0.34 -0.55,0.57 -0.26,0.24 -0.53,0.46 -0.83,0.67 -0.63,0.45 -1.16,0.66 -1.58,0.62 -0.42,-0.04 -0.83,-0.35 -1.23,-0.91l-6.7 -9.42zm20.04 -2.59c0.68,-0.64 1.05,-1.23 1.11,-1.75 0.06,-0.53 -0.07,-0.96 -0.39,-1.3 -0.3,-0.31 -0.66,-0.45 -1.07,-0.43 -0.42,0.03 -0.92,0.19 -1.5,0.48l-1.3 0.63c-0.89,0.42 -1.72,0.74 -2.51,0.96 -0.78,0.22 -1.52,0.24 -2.22,0.08 -0.7,-0.17 -1.37,-0.6 -2.01,-1.27 -0.99,-1.04 -1.38,-2.24 -1.18,-3.61 0.2,-1.36 1.01,-2.71 2.41,-4.05 0.71,-0.68 1.41,-1.21 2.1,-1.61 0.69,-0.39 1.32,-0.6 1.89,-0.64 0.58,-0.03 1.05,0.14 1.42,0.53 0.28,0.29 0.45,0.6 0.51,0.93 0.07,0.33 0.07,0.67 0.01,1.01 -0.48,0.07 -1.02,0.27 -1.63,0.57 -0.62,0.31 -1.21,0.74 -1.79,1.29 -0.6,0.57 -0.95,1.1 -1.07,1.58 -0.11,0.48 -0.02,0.88 0.28,1.19 0.23,0.25 0.53,0.36 0.88,0.32 0.35,-0.03 0.78,-0.18 1.3,-0.43l1.34 -0.67c1.47,-0.73 2.79,-1.1 3.96,-1.11 1.16,0 2.21,0.49 3.14,1.46 1,1.06 1.41,2.3 1.22,3.73 -0.18,1.43 -1.05,2.88 -2.58,4.35 -0.77,0.72 -1.53,1.29 -2.28,1.7 -0.76,0.41 -1.46,0.63 -2.12,0.66 -0.65,0.03 -1.18,-0.17 -1.57,-0.58 -0.31,-0.33 -0.48,-0.7 -0.5,-1.11 -0.03,-0.42 0.02,-0.8 0.15,-1.14 0.6,-0.04 1.26,-0.2 1.97,-0.46 0.72,-0.27 1.4,-0.7 2.03,-1.31z" class="fil2"></path>
  <path d="M213.75 71.14c11.48,17.13 17.61,37.29 17.61,57.91 0,20.39 -5.99,40.33 -17.23,57.34" class="fil0 str2"></path>
  <path d="M41.21 187.36c-11.66,-17.21 -17.89,-37.53 -17.89,-58.31 0,-20.64 6.14,-40.81 17.64,-57.95" class="fil0 str2"></path>
  <path d="M127.34 211.75c46.55,0 84.41,-37.86 84.41,-84.4 0,-46.55 -37.86,-84.42 -84.41,-84.42 -46.54,0 -84.41,37.87 -84.41,84.42 0,46.54 37.87,84.4 84.41,84.4z" class="fil3 str3"></path>
  <g id="_1740247306720">
   <path d="M98.93 116c0.23,16.48 12.68,28.7 27.99,28.83 15.96,0.15 28.74,-12.24 28.93,-28 0.21,-17.54 -14.73,-29.07 -29,-28.76 -14.75,0.32 -27.79,12.21 -27.92,27.93zm-6.82 -0.04c-0.36,-1.64 -0.71,-3.29 -1.08,-4.93 -0.29,-1.26 -0.67,-2.51 -0.9,-3.78 -0.43,-2.38 0.42,-4.36 2.14,-5.96 0.99,-0.91 2.02,-1.8 3.11,-2.56 2.78,-1.94 4.59,-4.52 5.64,-7.73 0.47,-1.43 1.11,-2.82 1.85,-4.13 1.24,-2.18 3.27,-3.15 5.71,-3.31 1.73,-0.11 3.48,-0.03 5.18,-0.32 1.51,-0.26 3.02,-0.76 4.41,-1.42 1.59,-0.76 3.12,-1.71 4.56,-2.74 3.18,-2.28 6.29,-1.98 9.43,0.01 1.17,0.75 2.35,1.49 3.52,2.23 2.06,1.31 4.29,1.97 6.75,2.01 1.72,0.03 3.45,0.25 5.16,0.48 1.98,0.26 3.43,1.37 4.37,3.12 0.54,0.99 1.11,1.99 1.42,3.06 1.26,4.4 4.16,7.49 7.72,10.14 1.76,1.3 3.44,2.83 3.54,5.2 0.07,1.6 -0.07,3.33 -0.59,4.83 -1.47,4.24 -1.35,8.38 0,12.61 0.47,1.45 0.66,3.06 0.62,4.59 -0.07,2.29 -1.59,3.85 -3.27,5.23 -0.63,0.52 -1.3,1.01 -1.98,1.47 -2.7,1.85 -4.64,4.26 -5.56,7.45 -0.25,0.87 -0.65,1.7 -0.98,2.54 -1.41,3.63 -3.76,5.48 -7.59,5.35 -4.78,-0.16 -8.96,1.19 -12.74,4.01 -0.56,0.41 -1.19,0.72 -1.8,1.04 -2.11,1.13 -4.26,1.42 -6.44,0.19 -1.81,-1.02 -3.64,-2.02 -5.4,-3.12 -2.32,-1.45 -4.86,-1.95 -7.54,-2.08 -1.63,-0.08 -3.27,-0.23 -4.86,-0.57 -2,-0.42 -3.34,-1.76 -4.16,-3.61 -0.37,-0.83 -0.79,-1.65 -1.02,-2.53 -1.03,-3.88 -3.47,-6.72 -6.55,-9.11 -0.17,-0.13 -0.35,-0.26 -0.52,-0.4 -4.41,-3.62 -5.08,-5.9 -3.41,-11.38 0.4,-1.32 0.69,-2.67 0.97,-4.03 0.12,-0.59 0.09,-1.21 0.13,-1.81 0.05,-0.02 0.11,-0.03 0.16,-0.04z" class="fil4"></path>
   <path d="M112.91 180.3c-1.01,-2.13 -2.08,-4.24 -3.01,-6.4 -1.39,-3.22 -2.68,-6.48 -2.96,-10.04 -0.07,-1 -0.58,-0.89 -1.2,-0.4 -4.37,3.47 -9.41,5.65 -14.57,7.59 -0.24,0.09 -0.49,0.15 -1.05,0.31 2.86,-7.62 5.64,-15.03 8.49,-22.64 0.62,0.74 1.09,1.34 1.61,1.9 2.03,2.18 4.7,3.03 7.53,3.44 1.45,0.21 2.95,0.08 4.39,0.33 1.46,0.25 2.96,0.6 4.29,1.22 1.48,0.69 2.79,1.74 4.19,2.6 0.7,0.42 0.87,0.83 0.54,1.69 -2.04,5.15 -3.98,10.33 -5.95,15.51 -0.63,1.63 -1.28,3.26 -1.92,4.89 -0.13,0 -0.25,0 -0.38,0z" class="fil4"></path>
   <path d="M159.12 172.43c-2.84,-1.28 -5.76,-2.43 -8.51,-3.87 -2.74,-1.42 -5.32,-3.15 -8.09,-4.81 -0.95,6.15 -3.32,11.67 -6.47,17.19l0 0 -7.82 -20.45c0.67,-0.18 1.33,-0.24 1.87,-0.52 2.34,-1.19 4.72,-2.33 6.94,-3.72 2.06,-1.3 4.17,-1.87 6.6,-1.95 2.35,-0.09 4.71,-0.55 7,-1.1 1.09,-0.26 1.44,-0.05 1.79,0.9 1.77,4.83 3.58,9.65 5.41,14.46 0.46,1.18 1.04,2.32 1.57,3.48 -0.1,0.13 -0.19,0.26 -0.29,0.39z" class="fil4"></path>
   <path d="M122.39 122.83c-0.54,-0.67 -0.93,-1.24 -1.4,-1.74 -0.98,-1.04 -1.95,-2.1 -3.02,-3.04 -1.46,-1.28 -3.08,-1.16 -4.4,0.19 -1.05,1.07 -1.08,2.64 0.16,3.97 2.39,2.56 4.86,5.06 7.36,7.51 1.13,1.11 2.71,1.03 3.85,-0.06 0.5,-0.48 0.92,-1.05 1.33,-1.6 3.22,-4.3 6.42,-8.61 9.64,-12.9 1.64,-2.18 3.37,-4.29 4.95,-6.52 1.05,-1.48 0.8,-2.81 -0.48,-3.93 -1.5,-1.31 -3.2,-1.13 -4.62,0.63 -1.55,1.92 -2.98,3.94 -4.48,5.9 -2.86,3.75 -5.74,7.48 -8.89,11.59zm4.77 -29.91c15.02,0.17 23.65,11.39 23.71,23.44 0.09,13.93 -10.6,23.5 -23.33,23.58 -13.64,0.09 -24.2,-10.21 -23.59,-25.24 0.47,-11.28 9.95,-21.72 23.21,-21.78z" class="fil4"></path>
  </g>
 </g>
</svg>
